# xmcd
#
# Track frame offsets:
#	182
#	14440
#	27825
#	42010
#	56422
#	70622
#	84497
#	98227
#	113022
#	127055
#	139577
#	152787
#	167890
#	182297
#	196645
#	209500
#	222940
#	235085
#
# Disc length: 3316 seconds
#
# Revision: 1
# Processed by: cddbd v1.4PL0 Copyright (c) Steve Scherf et al.
# Submitted via: audiograbber 1.81.02
#
DISCID=ea0cf212
DTITLE=Charlie Patton - Jazz and Blues Collection n°77
DYEAR=1996
DGENRE=Blues
TTITLE0=Mississippi Bo Weavil Blues
TTITLE1=Down the Dirt Road Blues
TTITLE2=Tom Rushen Blues
TTITLE3=A Spoonful Blues
TTITLE4=Shake It and Break It
TTITLE5=Going to Move to Alabama
TTITLE6=Elder Greene Blues
TTITLE7=Hammer Blues
TTITLE8=High Water Everywhere
TTITLE9=Rattlesnake Blues
TTITLE10=Running Wild Blues
TTITLE11=Dry Well Blues
TTITLE12=Bird Nest Bound
TTITLE13=High Sheriff Blues
TTITLE14=Stone Pony Blues
TTITLE15=34 Blues
TTITLE16=Revenue Man Blues
TTITLE17=Poor Me
EXTD=
EXTT0=
EXTT1=
EXTT2=
EXTT3=
EXTT4=
EXTT5=
EXTT6=
EXTT7=
EXTT8=
EXTT9=
EXTT10=
EXTT11=
EXTT12=
EXTT13=
EXTT14=
EXTT15=
EXTT16=
EXTT17=
PLAYORDER=
